<svg xmlns="http://www.w3.org/2000/svg"
     version="1.1" viewBox="0 0 16.803802735218895 16.845900945851803">
    <g transform="matrix(1,0,0,1,3.567418463526237,6.570577823615495)">
        <rect width="16.845900945851803" height="16.845900945851803" x="-3.58846756884269" y="-6.570577823615495"
              fill="#ffffff"></rect>
        <g>
            <path d=" M -1.5909581967316917 0.8122247091653613 L -1.642535954993231 1.2149351943190436 L -1.4584385532937276 1.3282407400239722 L -1.4654256880335912 1.3827951160915892 L -2.1188476127807885 0.9744768722429112 L -2.112368633294733 0.9238900871620299 L -1.3771337126844045 0.6934261821462462 L -1.3841208474242683 0.7479805582138632 L -1.5909581967316917 0.8122247091653613 M -1.6360235372946907 0.8256080973739173 L -2.0601253686301857 0.9567936021291283 L -1.6826467818315995 1.1896345704069258 L -1.6360235372946907 0.8256080973739173 M -1.39800967567705 0.469136846478024 Q -1.4907426423315424 0.5214039192433588 -1.634181901507353 0.48494601300761125 L -2.024763127506352 0.385672119676488 L -2.0121999300872764 0.33624372631185045 L -1.6235570724555186 0.4350249452343825 Q -1.4985323127684944 0.46680244458851383 -1.4219706299633526 0.4253861588298314 Q -1.3454089471582107 0.38396987307114894 -1.3178191802771044 0.27542124450567046 Q -1.2904757506002937 0.16784180012381222 -1.337969643298556 0.09489435221529419 Q -1.385463535996818 0.02194690430677604 -1.5104882956838424 -0.009830595047355173 L -1.8991311533156003 -0.10861181396988728 L -1.886567955896525 -0.15804020733452484 L -1.4959867298975265 -0.0587663140034016 Q -1.3525474707217156 -0.02230840776765408 -1.296149241700823 0.06837918655101194 Q -1.2397510126799303 0.15906678086967785 -1.2725138608512438 0.28796827729118357 Q -1.3052767090225574 0.4168697737126893 -1.39800967567705 0.469136846478024 M -1.6893551780160947 -0.5835469615403082 L -1.7780231467442955 -0.34766141445949444 L -1.8210816196241266 -0.3638468373225787 L -1.625800974210827 -0.8833566731553232 L -1.582742501330996 -0.8671712502922388 L -1.6714104700591967 -0.6312857032114252 L -1.0592313121589898 -0.4011712129406179 L -1.0771760201158878 -0.35343247126950084 L -1.6893551780160947 -0.5835469615403082 M -0.8972912848122229 -0.8908848811006471 Q -0.9765963246832967 -0.8383305220897393 -1.070352001250743 -0.8331225367421803 Q -1.1641076778181894 -0.8279145513946213 -1.253042312834461 -0.8736379665614978 Q -1.3419769478507326 -0.9193613817283743 -1.3922953800096463 -0.9986412996462735 Q -1.44261381216856 -1.0779212175641724 -1.4460179828626187 -1.1729983526802754 Q -1.4494221535566774 -1.2680754877963785 -1.4023270359347948 -1.3596781618631382 Q -1.3552319183129118 -1.451280835929898 -1.2763715516169194 -1.50406381201664 Q -1.197511184920927 -1.5568467881033825 -1.1037555083534805 -1.5620547734509413 Q -1.0099998317860341 -1.5672627587985004 -0.9201758504195998 -1.5210821094799551 Q -0.8303518690531655 -1.4749014601614099 -0.7800334368942519 -1.3956215422435108 Q -0.7297150047353382 -1.3163416243256119 -0.7267555072163607 -1.2214931062853431 Q -0.7237960096973833 -1.1266445882450746 -0.7708911273192662 -1.035041914178315 Q -0.817986244941149 -0.943439240111555 -0.8972912848122229 -0.8908848811006471 M -0.7755640296680888 -1.2162273550493694 Q -0.7786742589061151 -1.2976603119776726 -0.8226265763741673 -1.366358520026992 Q -0.8665788938422193 -1.4350567280763113 -0.9439520263063756 -1.474836099271494 Q -1.0213251587705319 -1.5146154704666766 -1.1027706766754228 -1.510387277802653 Q -1.1842161945803138 -1.5061590851386297 -1.2522536733553047 -1.4613048603438274 Q -1.3202911521302956 -1.4164506355490252 -1.360527757477147 -1.3381881567347063 Q -1.4007643628239985 -1.2599256779203873 -1.3978827506618066 -1.1780480478170023 Q -1.3950011384996146 -1.0961704177136176 -1.3510488210315623 -1.0274722096642983 Q -1.3070965035635103 -0.9587740016149789 -1.229723371099354 -0.9189946304197963 Q -1.1523502386351978 -0.8792152592246137 -1.0709047207303068 -0.8834434518886372 Q -0.989459202825416 -0.8876716445526606 -0.9211931069745906 -0.9329705425225441 Q -0.8529270111237652 -0.9782694404924277 -0.8126904057769139 -1.0565319193067468 Q -0.7724538004300625 -1.1347943981210658 -0.7755640296680888 -1.2162273550493694 M -0.8256644611672304 -2.2090171873426887 L -0.5862333333792256 -2.029925772009167 L -0.3628182901705175 -2.3286141019921964 L -0.32598273204928596 -2.30106157655627 L -0.5493977752579939 -2.0023732465732405 L -0.3019589174436344 -1.8172921517971257 L -0.3325062826008572 -1.7764527286627168 L -0.8930473844456848 -2.1957302896442066 L -0.612730386532346 -2.5704920548776053 L -0.5758948284111145 -2.542939529441679 L -0.8256644611672304 -2.2090171873426887 M 0.06837316153572728 -2.3989122050290734 Q -0.03807467225747921 -2.3985825374178487 -0.1454472602934227 -2.5004409064331807 L -0.4378199155534581 -2.7777984923330377 L -0.40272007217655315 -2.814798505777856 L -0.1117983978359224 -2.5388173843241524 Q -0.01821012853432298 -2.450035427547275 0.06882696204814309 -2.4487925023928114 Q 0.15586405263060915 -2.447549577238348 0.2329460616151848 -2.528804508725008 Q 0.3093398383766839 -2.6093339497519654 0.3035141501172528 -2.696184749151303 Q 0.29768846185782183 -2.7830355485506404 0.2041001925562224 -2.8718175053275177 L -0.08682148178440835 -3.1477986267812215 L -0.05172163840750338 -3.18479864022604 L 0.24065101685253198 -2.907441054326183 Q 0.3480236048884755 -2.805582685310851 0.3529571857778882 -2.698902510115983 Q 0.35789076666730085 -2.5922223349211158 0.2663558809981173 -2.495732103780707 Q 0.17482099532893375 -2.399241872640298 0.06837316153572728 -2.3989122050290734 M 0.32800563650648623 -3.4596880348480736 L 0.1354938747272018 -3.2970743159414693 L 0.10581041810139313 -3.332215351821815 L 0.5297946553533885 -3.6903527089375503 L 0.5594781119791973 -3.6552116730572046 L 0.36696635019991286 -3.4925979541506003 L 0.7889876683146712 -2.9929840961996006 L 0.7500269546212446 -2.9600741768970735 L 0.32800563650648623 -3.4596880348480736 M 1.1132912547642888 -3.3394963190301636 Q 1.009378293683538 -3.3625906152833593 0.9270420686568225 -3.4855733215812372 L 0.7028427532124552 -3.8204519069734313 L 0.7452219290313185 -3.848824525056962 L 0.9683085927861355 -3.5156078681282525 Q 1.0400746267621241 -3.4084134822334806 1.1247063705005333 -3.388054996243697 Q 1.2093381142389428 -3.3676965102539134 1.3024061081940934 -3.4300050048687254 Q 1.3946431379175017 -3.491757173638762 1.4080651735246976 -3.5777621093120078 Q 1.4214872091318935 -3.6637670449852537 1.349721175155905 -3.7709614308800257 L 1.1266345114010878 -4.104178087808735 L 1.1690136872199512 -4.132550705892266 L 1.3932130026643186 -3.797672120500071 Q 1.475549227691034 -3.6746894142021933 1.4568949645897782 -3.5695370558446693 Q 1.4382407014885226 -3.4643846974871457 1.327722458666781 -3.3903933601320566 Q 1.2172042158450396 -3.3164020227769675 1.1132912547642888 -3.3394963190301636 M 2.227945366030844 -3.9026649227962693 L 1.9737518363819082 -4.03694317674908 Q 1.9429216729747383 -4.015883712741485 1.9152126239437475 -4.001983763036606 L 1.7364445656792908 -3.912306668166423 L 1.8391248393056507 -3.7076172414536206 L 1.7935389844482144 -3.6847495822617238 L 1.479669152402573 -4.310437786187322 L 1.704023065524466 -4.422982540249402 Q 1.8220099839790072 -4.4821694228637226 1.9170720979751108 -4.459933315232399 Q 2.012134211971214 -4.437697207601075 2.061904999624166 -4.338480935264301 Q 2.099120993995292 -4.264292191084552 2.0864665609149218 -4.194733831964929 Q 2.0738121278345516 -4.1251754728453065 2.0135116107301623 -4.069194693671172 L 2.279788102927536 -3.928671280308622 L 2.227945366030844 -3.9026649227962693 M 1.8950352775979562 -4.04220657614611 Q 1.9951453902260519 -4.092425749273412 2.025686886433696 -4.163125586680569 Q 2.056228382641341 -4.233825424087726 2.015425304475407 -4.315164890598053 Q 1.9746222263094737 -4.396504357108381 1.8996905681410887 -4.414294708542131 Q 1.8247589099727037 -4.432085059975879 1.724648797344608 -4.381865886848577 L 1.5458807390801514 -4.292188791978393 L 1.7162672193334996 -3.952529481275926 L 1.8950352775979562 -4.04220657614611 M 2.9112799191014616 -4.215047775295991 L 2.9270441181261813 -4.171833309788374 L 2.473292230296201 -4.006309220028819 L 2.233402245137426 -4.663920651666471 L 2.673062459432313 -4.824304241744052 L 2.6888266584570326 -4.781089776236435 L 2.2970781341814597 -4.638183885077565 L 2.391663328329777 -4.3788970920318615 L 2.7420762769024116 -4.506724184123609 L 2.757497775948333 -4.464449163518331 L 2.4070848273756984 -4.336622071426584 L 2.5054397212907964 -4.067001384455147 L 2.9112799191014616 -4.215047775295991 M 3.168421118116518 -4.261076266361106 Q 3.0945829451486233 -4.270044221131472 3.0466098451715395 -4.301406326905617 L 3.0597730835432677 -4.3438295417245 Q 3.105082085223615 -4.314896958591807 3.1716445773577093 -4.3061829101125575 Q 3.238207069491803 -4.297468861633308 3.305172973471044 -4.314099186472079 Q 3.4022250082235677 -4.3382011065282695 3.442562816326002 -4.387372858962886 Q 3.482900624428437 -4.436544611397501 3.4681984531941605 -4.495746352596541 Q 3.4568705507677513 -4.541360808930227 3.4239179637688366 -4.562027860245762 Q 3.390965376769922 -4.582694911561298 3.348529274860484 -4.587611948751699 Q 3.306093172951046 -4.592528985942102 3.23624148211034 -4.591668005864296 Q 3.1569320505402207 -4.591549414024009 3.107464508770183 -4.597811387453335 Q 3.0579969670001454 -4.60407336088266 3.0174168356845037 -4.632634749896595 Q 2.9768367043688624 -4.66119613891053 2.9616524947334626 -4.722338920804619 Q 2.9493605155048055 -4.771835458528406 2.9653212488641056 -4.8195900917134 Q 2.9812819822234062 -4.867344724898394 3.0291203814970094 -4.90498429921771 Q 3.076958780770612 -4.942623873537027 3.1575119696152063 -4.962628467183665 Q 3.21380214977167 -4.976607580816255 3.272248615642636 -4.973605810139793 Q 3.330695081513601 -4.97060403946333 3.3774759725784307 -4.952340736608137 L 3.3689178731984892 -4.9079700375489255 Q 3.3211664617861345 -4.925992321203558 3.2685398962276815 -4.92837865678806 Q 3.2159133306692285 -4.930764992372563 3.168357833640492 -4.918955051545029 Q 3.0742173599305445 -4.895576189090525 3.035091091376197 -4.845674935508946 Q 2.9959648228218496 -4.795773681927366 3.0109080132566874 -4.735601420380801 Q 3.022235915683097 -4.689986964047115 3.0551885026820114 -4.669319912731581 Q 3.088141089680926 -4.648652861416045 3.130577191590364 -4.643735824225643 Q 3.173013293499802 -4.63881878703524 3.2440765238885954 -4.638950265966082 Q 3.323385955458715 -4.63906885780637 3.3723682370549897 -4.632686374776763 Q 3.4213505186512645 -4.626303891747156 3.4616896307663443 -4.598713023080747 Q 3.5020287428814236 -4.571122154414338 3.516971933316262 -4.510949892867774 Q 3.529263912544919 -4.461453355143987 3.512697409411575 -4.414063472532474 Q 3.496130906278231 -4.366673589920962 3.44683672648334 -4.328672486800803 Q 3.3975425466884492 -4.290671383680643 3.316989357843855 -4.270666790034006 Q 3.242259291084412 -4.252108311590739 3.168421118116518 -4.261076266361106 M 4.116854398570524 -5.078058584022233 L 3.8661040105510613 -5.052993809774515 L 3.8615286946169545 -5.0987657060002896 L 4.413776572993151 -5.153967887379191 L 4.418351888927258 -5.1081959911534165 L 4.1676015009077965 -5.0831312169056995 L 4.232650557884016 -4.4323742575218565 L 4.181903455546744 -4.42730162463839 L 4.116854398570524 -5.078058584022233 M 5.1277194806425985 -4.459186677507763 L 4.962393844783048 -4.694372633992488 Q 4.925359101060741 -4.6896368386608565 4.894359890640448 -4.689858092628988 L 4.694364984703076 -4.691285537584676 L 4.692730560228813 -4.462291370286384 L 4.641731859214783 -4.4626553687500845 L 4.646727916559691 -5.1626375395308886 L 4.897721523511094 -5.1608460961115 Q 5.029718161429759 -5.159903982440746 5.104270174607621 -5.096870282476934 Q 5.178822187785483 -5.033836582513122 5.178029955835077 -4.922839409717881 Q 5.177437566178466 -4.839841523753871 5.134535395466793 -4.783646294879647 Q 5.091633224755119 -4.727451066005423 5.012471080739953 -4.705015492580122 L 5.185718003364436 -4.458772718470613 L 5.1277194806425985 -4.459186677507763 M 4.894681065755478 -4.734856946464896 Q 5.006678213080407 -4.734057577289711 5.066030002958464 -4.783135220247283 Q 5.125381792836522 -4.832212863204855 5.12603128029136 -4.923210545406359 Q 5.1266807677461985 -5.014208227607864 5.068035563121206 -5.064128063089291 Q 5.009390358496214 -5.114047898570719 4.897393211171285 -5.114847267745905 L 4.6973983052339126 -5.116274712701593 L 4.694686159818105 -4.736284391420584 L 4.894681065755478 -4.734856946464896 M 5.8476455117443376 -4.581955031097346 L 5.444821386689902 -4.632637614635761 L 5.331925287953664 -4.448288839510625 L 5.2773555173182105 -4.455154706738736 L 5.684220484668996 -5.1094825285090195 L 5.73482154471278 -5.103115997079318 L 5.966918982620754 -4.368395111765341 L 5.912349211985301 -4.375260978993451 L 5.8476455117443376 -4.581955031097346 M 5.834161996266794 -4.626990515000228 L 5.702034224689217 -5.050799731485599 L 5.470032799481134 -4.672804574504165 L 5.834161996266794 -4.626990515000228 M 6.297444762958718 -5.012935073119506 L 6.5657244021800345 -4.943978310004636 Q 6.671292924472899 -4.9168436992482425 6.74193037997482 -4.8522248174859115 Q 6.812567835476741 -4.78760593572358 6.838297367519231 -4.698908465743458 Q 6.86402689956172 -4.610210995763337 6.838883819870016 -4.512390621895637 Q 6.813740740178313 -4.414570248027937 6.748429528225122 -4.3492732680579165 Q 6.68311831627193 -4.283976288087896 6.590076136292254 -4.261428500067128 Q 6.497033956312577 -4.23888071204636 6.391465434019713 -4.266015322802753 L 6.123185794798396 -4.334972085917623 L 6.297444762958718 -5.012935073119506 M 6.3990426634290944 -4.311562941779792 Q 6.492988963084212 -4.287415627620434 6.574243579265801 -4.3062819295681605 Q 6.655498195447389 -4.325148231515887 6.711415893006157 -4.382018356359483 Q 6.767333590564924 -4.438888481203079 6.789489373659594 -4.525086632433032 Q 6.811645156754263 -4.6112847836629856 6.790081370061388 -4.6880702191534755 Q 6.768517583368512 -4.764855654643965 6.706431453684559 -4.820565281288445 Q 6.644345324000606 -4.876274907932926 6.550399024345488 -4.900422222092285 L 6.335387905547177 -4.955687209137416 L 6.184031544630783 -4.366827928824923 L 6.3990426634290944 -4.311562941779792 M 7.184178207480267 -4.755589808487456 L 7.232164205945178 -4.738317172576121 L 6.995088811083704 -4.079685821096952 L 6.947102812618794 -4.096958457008288 L 7.184178207480267 -4.755589808487456 M 8.068134966120748 -4.377116141290344 L 7.770933922133258 -3.7433405189658933 L 7.732907384793791 -3.7611725816051425 L 7.559174903216122 -4.514173262112713 L 7.301034567866986 -3.963693864436619 L 7.254859486811919 -3.9853470833557076 L 7.552060530799411 -4.619122705680159 L 7.5909924618850555 -4.600866070120927 L 7.763819549716547 -3.848289962533338 L 8.021959885065682 -4.398769360209433 L 8.068134966120748 -4.377116141290344 M 8.620703949680172 -3.6313150664265765 L 8.66197406689221 -3.6048995894234146 L 8.520732128630405 -3.384230799432513 Q 8.458268733122386 -3.37197012157161 8.390702434174198 -3.387908918466104 Q 8.323136135226008 -3.403847715360598 8.26165208305297 -3.4432013851816357 Q 8.174058364888644 -3.4992668873924284 8.128528919071098 -3.5830243919132 Q 8.082999473253551 -3.6667818964339713 8.086659127736903 -3.7606107668793864 Q 8.090318782220256 -3.8544396373248015 8.144767010328813 -3.9395066136190042 Q 8.199215238437372 -4.0245735899132065 8.282888385474678 -4.067188780454532 Q 8.366561532511984 -4.109803970995857 8.461687384131384 -4.103533217158914 Q 8.556813235750786 -4.09726246332197 8.645249201205155 -4.040657869743766 Q 8.71010224253836 -3.999147834453083 8.751219454244461 -3.9437413826490237 Q 8.792336665950565 -3.8883349308449646 8.80574274702414 -3.8239511053120814 L 8.760461727250819 -3.812565621207834 Q 8.747122866655092 -3.873344522135769 8.71173267101235 -3.9191488238155054 Q 8.676342475369605 -3.964953125495242 8.620754154226859 -4.000533155744399 Q 8.544951898123113 -4.049051378811431 8.462325314898639 -4.054445611347099 Q 8.379698731674162 -4.059839843882766 8.307160651379949 -4.022564155998702 Q 8.234622571085733 -3.985288468114639 8.187721622120936 -3.912012953881019 Q 8.14135976452355 -3.839579686937441 8.138307085657768 -3.7578289612419313 Q 8.135254406791987 -3.6760782355464223 8.174063011294818 -3.603152641846111 Q 8.21287161579765 -3.5302270481458002 8.288673871901393 -3.481708825078768 Q 8.389743546706386 -3.4170178609893918 8.490782930134008 -3.428333469526549 L 8.620703949680172 -3.6313150664265765 M 9.390420314379561 -2.5268957787784423 L 9.801182164243835 -2.9628736482811036 L 9.24065889055661 -2.7964445052353155 L 9.222491490292521 -2.8136184846123955 L 9.355796983439328 -3.3811523122358125 L 8.945682355914657 -2.947314793929362 L 8.909347555386478 -2.9816627526835218 L 9.39021897794472 -3.4903499600780203 L 9.421466906398953 -3.4608107155494423 L 9.277277843985338 -2.8526499520335094 L 9.876378609011748 -3.030774271947358 L 9.906899841455418 -3.001921986593864 L 9.42675511490774 -2.4925478200242823 L 9.390420314379561 -2.5268957787784423 M 10.032858978104217 -2.0694004056058954 L 9.778339385405584 -2.3857163504024266 L 9.569062329062985 -2.3315581221395214 L 9.534583073894451 -2.3744088043163916 L 10.281815759132215 -2.5623644217167856 L 10.313787432106674 -2.5226301527891426 L 9.970275480115017 -1.8329320022632165 L 9.935796224946484 -1.8757826844400864 L 10.032858978104217 -2.0694004056058954 M 10.05444940511155 -2.1111598771260316 L 10.253858362356008 -2.5077806881920646 L 9.82437873880515 -2.3970907927426004 L 10.05444940511155 -2.1111598771260316 M 10.14502206586821 -1.6353717804668069 Q 10.140111922344081 -1.729701735892284 10.183454370136959 -1.8130004887000037 Q 10.226796817929838 -1.8962992415077236 10.312334863464281 -1.9500043880594968 Q 10.397872908998725 -2.00370953461127 10.491730098597726 -2.0065517099360974 Q 10.585587288196729 -2.0093938852609248 10.668413275177972 -1.9639834692687463 Q 10.751239262159217 -1.918573053276568 10.80600787695954 -1.8313411850582737 Q 10.846419670404439 -1.7669759230719597 10.859701326480872 -1.6997461111440109 Q 10.872982982557303 -1.632516299216062 10.856259273737269 -1.5688820508642294 L 10.811295707476939 -1.578435987704761 Q 10.83692368241763 -1.6937104727413002 10.767266512137606 -1.8046558585334993 Q 10.72047390920141 -1.8791840566229154 10.648312598576602 -1.9188923082705296 Q 10.576151287951797 -1.9586005599181435 10.494642939250797 -1.9558366691756897 Q 10.413134590549797 -1.953072778433236 10.339453303802305 -1.9068119096213125 Q 10.265772017054815 -1.860551040809389 10.227865866544363 -1.7883404200290702 Q 10.189959716033911 -1.7161297992487512 10.194368119304704 -1.6338828176591387 Q 10.198776522575494 -1.5516358360695262 10.245569125511693 -1.4771076379801098 Q 10.31469456166744 -1.3670091635298358 10.43103251495253 -1.3396873659052937 L 10.4200999326458 -1.2950389768626134 Q 10.355520152641015 -1.3076267492840474 10.30005051807715 -1.3489591777313472 Q 10.244580883513283 -1.3902916061786472 10.20470082419266 -1.453809956823036 Q 10.149932209392336 -1.54104182504133 10.14502206586821 -1.6353717804668069 M 11.312050247266708 -0.8433486879269061 L 10.677034187173598 -0.5488073437597003 L 10.655574746384273 -0.5950727995664841 L 10.957660957828566 -0.735190324720312 L 10.760739030585349 -1.1597439191825623 L 10.458652819141054 -1.0196263940287342 L 10.437193378351731 -1.065891849835518 L 11.07220943844484 -1.3604331940027239 L 11.093668879234164 -1.3141677381959402 L 10.801561491591334 -1.1786787198790254 L 10.998483418834551 -0.7541251254167752 L 11.290590806477383 -0.88961414373369 L 11.312050247266708 -0.8433486879269061 M 11.42991911923294 -0.5229158743026154 L 11.446990423288746 -0.4748578824819597 L 10.787370927711116 -0.24054586602972003 L 10.77029962365531 -0.28860385785037584 L 11.42991911923294 -0.5229158743026154 M 11.697770682979696 0.40059774644492646 L 11.019245923330871 0.5726563136350085 L 11.008922409299466 0.531944828056079 L 11.481024005466347 -0.07986648509257752 L 10.891676785657081 0.06957867040966514 L 10.879141090047519 0.02014329506382216 L 11.557665849696344 -0.15191527212625983 L 11.568235161680876 -0.11023446546211771 L 11.095887767560868 0.5006075266013261 L 11.685234987370132 0.3511623710990835 L 11.697770682979696 0.40059774644492646 M 11.172489943793739 1.3185569324743882 L 11.126852985204033 1.3243247752844423 L 11.066290635698467 0.8451367100925328 L 11.760766092498336 0.757365189069972 L 11.819447623696275 1.2216716373304557 L 11.77381066510657 1.2274394801405095 L 11.72152391615456 0.8137305294468736 L 11.447702164616326 0.8483375863071976 L 11.494471846532633 1.2183937940019847 L 11.449826995738356 1.2240362489248637 L 11.403057313822048 0.8539800412300764 L 11.118322376534103 0.8899663648493263 L 11.172489943793739 1.3185569324743882"
                  fill="#262626" fill-rule="nonzero"></path>
        </g>
        <g>
            <path d=" M -1.0827810861626048 4.230048784681964 L -1.3357503712376833 4.33789840595438 L -1.1937810515990845 4.67089797394412 L -1.2526539033983757 4.695997522167519 L -1.3946232230369744 4.3629979541777795 L -1.6678300509180592 4.479475545151988 L -1.696851403551364 4.411403810259058 L -1.0529295869966184 4.136877501565635 L -0.8646829753211284 4.578423890060318 L -0.9235558271204194 4.603523438283717 L -1.0827810861626048 4.230048784681964 M -1.1632702782780073 5.490295856708272 L -1.0457652499393242 5.24046077447376 Q -1.061630951949855 5.218409028517645 -1.0758644787466896 5.193142316920689 L -1.1681369972916846 5.029344324499037 L -1.3615580308959756 5.138304426185148 L -1.3978780647913462 5.073830748317051 L -0.7879919227958339 4.730262860117601 L -0.6593993703554683 4.958534530407349 Q -0.5936306603287164 5.075284163303634 -0.6120900225923658 5.17291229421281 Q -0.6305493848560151 5.270540425121987 -0.7281311675752971 5.325511287233899 Q -0.7995749727804857 5.365757811280121 -0.8691701647562338 5.357331112409342 Q -0.9387653567319818 5.3489044135385635 -0.9983394723623324 5.294087219640466 L -1.1235145655006424 5.560868395996325 L -1.1632702782780073 5.490295856708272 M -0.9038391245683688 5.276432637605767 Q -0.8367662725929925 5.301774944680879 -0.7644512014706676 5.261037609365802 Q -0.6903935985140697 5.219318651513012 -0.677745619071461 5.1490671133375425 Q -0.6650976396288524 5.078815575162074 -0.7161420115899135 4.988203919779884 L -0.807432907597196 4.826148459192504 L -1.1132472445120887 4.998423214561086 L -1.0219563485048062 5.1604786751484655 Q -0.970911976543745 5.251090330530656 -0.9038391245683688 5.276432637605767 M -0.6370815424999979 6.140862888876771 L -0.6889496499874838 6.1783555471669835 L -0.9789319289508438 5.77718815331846 L -0.4116245033064677 5.367112203269264 L -0.13042956612987622 5.756123009425408 L -0.18229767361736204 5.79361566771562 L -0.4201417246458957 5.464577360841882 L -0.6219410803393952 5.610447234502239 L -0.4098732318853824 5.90382621747833 L -0.4609309001933761 5.940733052982758 L -0.6729987486473891 5.647354070006666 L -0.8837129353153002 5.799667994310654 L -0.6370815424999979 6.140862888876771 M -0.13947480707559345 6.708597249766303 L -0.1869739575380766 6.751490497548936 L -0.5187264208568821 6.384114255690668 L 0.0007955373265271515 5.914969358068115 L 0.322494895696278 6.271212986536739 L 0.2749957452337948 6.314106234319372 L 0.00289170461271393 6.012783498572994 L -0.18190967765538452 6.179665040727302 L 0.060705255115135914 6.448332110530723 L 0.013948278878629039 6.4905551513167525 L -0.22866665389189134 6.221888081513333 L -0.42163195264572906 6.396141900630281 L -0.13947480707559345 6.708597249766303 M 0.570516876146517 7.108081497429204 L 0.4167145998683545 7.294920625589382 L 0.36035403641507735 7.248525724067457 L 0.5141563126932399 7.061686595907279 L 0.5890591500922 6.530128917993033 L 0.6500520886238287 6.580337099092103 L 0.585577279454924 7.036288849809909 L 1.0206420948919521 6.8853994652636645 L 1.077774720858288 6.93242991338178 L 0.570516876146517 7.108081497429204 M 0.9033292162069844 7.609715112603202 Q 0.857427728449464 7.524888504621707 0.8613094696829785 7.431068559594031 Q 0.865191210916493 7.337248614566356 0.9198406437103521 7.252310757898616 Q 0.9744900765042113 7.167372901230877 1.0582638611380748 7.124955888039009 Q 1.1420376457719383 7.082538874847142 1.2382598983792499 7.089155377184085 Q 1.3344821509865612 7.095771879521028 1.421942914287996 7.152044562793912 Q 1.5094036775894308 7.208317246066796 1.5547347382155567 7.292182286116334 Q 1.6000657988416829 7.376047326165871 1.5963340003006135 7.470558297379 Q 1.592602201759544 7.565069268592129 1.5379527689656847 7.650007125259869 Q 1.4833033361718257 7.734944981927608 1.3988385253525086 7.77751193781192 Q 1.3143737145331915 7.820078893696232 1.2192629725502828 7.813582990413349 Q 1.1241522305673741 7.807087087130466 1.0366914672659395 7.750814403857581 Q 0.9492307039645046 7.694541720584697 0.9033292162069844 7.609715112603202 M 1.2188389404770814 7.744936648946371 Q 1.2954744862840941 7.749652910056751 1.3634133559292994 7.71428965241083 Q 1.4313522255745048 7.6789263947649085 1.4757210720012024 7.609966946777239 Q 1.5200899184279 7.541007498789569 1.5241151533528259 7.464521895675001 Q 1.5281403882777518 7.388036292560434 1.4920861044463773 7.320247365607674 Q 1.4560318206150027 7.252458438654913 1.3862314037494345 7.207548508735207 Q 1.3164309868838664 7.162638578815502 1.2393749566379046 7.157651775958618 Q 1.1623189263919427 7.152664973101734 1.0939595723077882 7.187757689001151 Q 1.0256002182236337 7.2228504049005675 0.9812313717969362 7.291809852888237 Q 0.9368625253702387 7.360769300875907 0.9332577748842619 7.437525445736979 Q 0.929653024398285 7.514281590598051 0.9661277926686088 7.582341059297315 Q 1.0026025609389326 7.65040052799658 1.0724029778045008 7.695310457916286 Q 1.142203394670069 7.740220387835992 1.2188389404770814 7.744936648946371 M 1.686555623048803 8.03771223836022 Q 1.6510085451627996 7.934773396061666 1.7144614381642909 7.7999597084415235 L 1.8852306334233373 7.437138978671879 L 1.9521850823085087 7.468652496001479 L 1.7826934620763377 7.828758856221724 Q 1.7307387443167277 7.939143217897278 1.754950685518193 8.016852817711309 Q 1.7791626267196587 8.094562417525339 1.8732607710988183 8.138851685123695 Q 1.9682637053277778 8.183566811064344 2.04357864760427 8.15270162890242 Q 2.1188935898807615 8.121836446740497 2.1708483076403717 8.011452085064944 L 2.3403399278725425 7.651345724844698 L 2.405484797058115 7.682007525489714 L 2.2347156017990684 8.04482825525936 Q 2.171262708797577 8.1796419428795 2.069734124438939 8.218063246320833 Q 1.9682055400803011 8.256484549762165 1.845154120507554 8.198567815210469 Q 1.7221027009348064 8.140651080658772 1.686555623048803 8.03771223836022 M 3.4566055537940112 8.015659759516058 L 3.2725381723004143 8.691025733688647 L 3.2021071492795588 8.671830135332886 L 3.287041098168747 8.360196978678964 L 2.8644549600436124 8.245023388544398 L 2.779521011154424 8.556656545198322 L 2.708125179599036 8.537197993440428 L 2.8921925610926325 7.861832019267838 L 2.963588392648021 7.881290571025732 L 2.8815469311823034 8.1823108337998 L 3.304133069307438 8.297484423934366 L 3.3861745307731552 7.996464161160297 L 3.4566055537940112 8.015659759516058 M 4.059197554522644 8.632545150798851 L 3.6731380777996865 8.577245237305284 L 3.5634712063432112 8.750445056314858 L 3.487249207092781 8.739526868266127 L 3.9032722122128916 8.091973890347848 L 3.975534627086676 8.102324899796644 L 4.193045122229881 8.840626453704367 L 4.1158332268852895 8.829566471005652 L 4.059197554522644 8.632545150798851 M 4.040978038979296 8.569322929599611 L 3.9279902835539735 8.173300496997683 L 3.7083729513410555 8.521679927205152 L 4.040978038979296 8.569322929599611 M 5.0105555362845315 8.165269007459614 L 4.9976299048231905 8.865149660179295 L 4.93664030508619 8.864023283723379 L 4.497205255009312 8.28781079100569 L 4.486717028337824 8.855713949212516 L 4.412729645050315 8.854347525315173 L 4.425655276511655 8.154466872595494 L 4.486644876248656 8.15559324905141 L 4.9270797558294195 8.731824206956901 L 4.937567982500907 8.163921048750074 L 5.0105555362845315 8.165269007459614 M 5.2557645661886045 8.153979287269498 L 5.538915219587294 8.121564668963945 Q 5.6491949477531005 8.108940028150203 5.738704618116208 8.143483752782727 Q 5.828214288479317 8.178027477415252 5.883951280988194 8.251666038414672 Q 5.939688273497071 8.325304599414093 5.951289294785375 8.426642727998887 Q 5.962890316073678 8.527980856583682 5.925237268514215 8.612310554848793 Q 5.887584220954753 8.696640253113905 5.8081970103432035 8.750519013226937 Q 5.728809799731654 8.804397773339968 5.618530071565849 8.81702241415371 L 5.335379418167158 8.849437032459264 L 5.2557645661886045 8.153979287269498 M 5.607276955126725 8.75389264803338 Q 5.698679973065952 8.743428981773341 5.7630808906672035 8.699318078221989 Q 5.827481808268456 8.655207174670638 5.857899288789305 8.586803761899315 Q 5.888316769310154 8.518400349127994 5.878762987072728 8.434945419705222 Q 5.869209204835301 8.351490490282451 5.824119844449832 8.291730975725944 Q 5.779030484064364 8.231971461169437 5.706326874756777 8.203556057008143 Q 5.63362326544919 8.175140652846848 5.542220247509963 8.185604319106886 L 5.336563457146704 8.209147568191973 L 5.401620164763466 8.777435897118467 L 5.607276955126725 8.75389264803338 M 6.288394310309029 8.690866811295315 Q 6.213071823700556 8.682881010701992 6.165728918332901 8.65188666748667 L 6.1809247819110675 8.589765127501623 Q 6.2266081055844085 8.618067670464347 6.293312815384033 8.626537126795645 Q 6.360017525183659 8.635006583126943 6.42524190761282 8.619684052763636 Q 6.51675074266269 8.5981867713584 6.554615200522936 8.553852441195989 Q 6.592479658383183 8.509518111033579 6.579901461816289 8.455975707546953 Q 6.570296293528843 8.415088781248075 6.5397547262000915 8.396583034435169 Q 6.509213158871341 8.378077287622263 6.470106348277556 8.373396757184183 Q 6.43099953768377 8.368716226746104 6.363089541771269 8.368234090702995 Q 6.281609290738882 8.366830989958487 6.231624025277811 8.359569913124695 Q 6.18163875981674 8.352308836290902 6.140336178246851 8.322977168154525 Q 6.0990335966769615 8.293645500018146 6.084168455279723 8.230368114079408 Q 6.0720476476788985 8.178772707083205 6.089357388532819 8.130022087891545 Q 6.106667129386739 8.081271468699887 6.157183971050104 8.042696234308394 Q 6.207700812713468 8.004120999916902 6.291421661801646 7.984453274375941 Q 6.349831556514328 7.970731605393875 6.40958116458405 7.973644393665383 Q 6.469330772653771 7.97655718193689 6.516849838960647 7.995183462760574 L 6.506005357329395 8.058337221303905 Q 6.456539294532096 8.04016832944629 6.404548312267528 8.037487329042447 Q 6.352557330002961 8.034806328638604 6.305829414232814 8.045783663824256 Q 6.216267575673369 8.066823556263424 6.179118561418763 8.11201703742953 Q 6.141969547164156 8.157210518595633 6.154776438214085 8.211726420327471 Q 6.16438160650153 8.252613346626347 6.195037521071798 8.27160584256186 Q 6.225693435642066 8.290598338497372 6.266260493603669 8.2949358272109 Q 6.306827551565271 8.299273315924427 6.373764049232561 8.299984146450571 Q 6.45306860929149 8.300871137915937 6.503540623875168 8.30801786750821 Q 6.554012638458845 8.315164597100486 6.594714123664611 8.344123863355776 Q 6.635415608870377 8.373083129611066 6.650052055784581 8.435387017304594 Q 6.662172863385406 8.486982424300797 6.644376373408879 8.535847390733972 Q 6.626579883432353 8.584712357167149 6.57497519628226 8.62302953691907 Q 6.523370509132167 8.661346716670991 6.439649660043989 8.681014442211952 Q 6.363716796917503 8.698852611888638 6.288394310309029 8.690866811295315 M 7.56593003133172 8.106826325850207 L 7.20417547029541 8.252543989739753 L 7.196128854962834 8.457386006869271 L 7.124705518553101 8.486155904611566 L 7.159985248832425 7.7172896349447155 L 7.2276982820520415 7.690014277344877 L 7.786067062191277 8.219754124218625 L 7.713716149984015 8.248897656996535 L 7.56593003133172 8.106826325850207 M 7.5184673826615835 8.06125992396005 L 7.222147875285764 7.775262110072337 L 7.20680191469184 8.18680129592643 L 7.5184673826615835 8.06125992396005 M 8.154782671192 7.225530931487101 L 8.494508866527521 7.83756533591454 L 8.441174439855988 7.86717004722235 L 7.772060209937525 7.5889432560597765 L 8.047723751295491 8.085565458509471 L 7.983022971398876 8.121479370587798 L 7.643296776063354 7.509444966160357 L 7.696631202734888 7.479840254852548 L 8.36661976751682 7.757581722878927 L 8.090956226158854 7.260959520429234 L 8.154782671192 7.225530931487101 M 8.36128296232733 7.09281862652071 L 8.590019554506895 6.922805181763892 Q 8.67910643777683 6.856589419069132 8.773872082081889 6.841598666604785 Q 8.868637726386945 6.826607914140438 8.953784002494336 6.862376079665719 Q 9.038930278601729 6.898144245190999 9.099777195672589 6.980007867655265 Q 9.16062411274345 7.06187149011953 9.170327442658284 7.153714265494428 Q 9.180030772573117 7.2455570408693255 9.138357046104398 7.331977816856414 Q 9.09668331963568 7.418398592843502 9.007596436365745 7.4846143555382625 L 8.77885984418618 7.65462780029508 L 8.36128296232733 7.09281862652071 M 8.96620764045994 7.435635098975228 Q 9.04004541758457 7.380753565930922 9.073650098731118 7.310298080658028 Q 9.107254779877666 7.239842595385135 9.099276265196995 7.165407433643588 Q 9.091297750516324 7.090972271902041 9.041188524693261 7.023555171049116 Q 8.9910792988702 6.956138070196192 8.922104359608312 6.927039827056463 Q 8.853129420346423 6.897941583916733 8.775977435806023 6.909808398210299 Q 8.698825451265625 6.921675212503866 8.624987674140993 6.976556745548171 L 8.458852675610572 7.1000401948978595 L 8.800072641929518 7.559118548324916 L 8.96620764045994 7.435635098975228 M 9.727168603737587 5.854750612095542 L 10.242282924665389 6.328730818828997 L 10.194207789410996 6.380978128523103 L 9.782116332668753 6.001793963136339 L 9.94250817310489 6.523081271174343 L 9.918809162768218 6.548836987220733 L 9.388211935559772 6.43431370365486 L 9.798095759498038 6.811466525298481 L 9.750020624243644 6.863713834992587 L 9.234906303315842 6.3897336282591315 L 9.276210292759757 6.344845094578281 L 9.863973600486185 6.472560771339153 L 9.68586461429367 5.899639145776394 L 9.727168603737587 5.854750612095542 M 9.870728178438814 5.655675442447186 L 9.915019205241316 5.596393869047182 L 10.475790845511625 6.01536304150328 L 10.431499818709122 6.074644614903284 L 9.870728178438814 5.655675442447186 M 10.368165434765919 4.90194012913984 L 10.96465929053277 5.268266595604376 L 10.932736555598003 5.320246774464059 L 10.213228812762841 5.4064593489543835 L 10.69724097001366 5.703707110314179 L 10.658515029273122 5.766765032209532 L 10.06202117350627 5.400438565744996 L 10.093943908441037 5.348458386885313 L 10.81397497479972 5.261393678315321 L 10.329962817548902 4.964145916955526 L 10.368165434765919 4.90194012913984 M 10.48288108001587 4.684925735922808 L 10.598649767571471 4.42449798974039 Q 10.643738624829968 4.3230682359640795 10.718929407803103 4.2634729663876545 Q 10.794120190776239 4.203877696811229 10.885857503536293 4.1932233339694625 Q 10.977594816296348 4.182568971127696 11.070800535982686 4.224001975094963 Q 11.164006255669024 4.265434979062231 11.217560211831794 4.340676083382385 Q 11.271114167994561 4.415917187702539 11.277249944355585 4.511664784270012 Q 11.283385720716607 4.607412380837484 11.23829686345811 4.7088421346137945 L 11.122528175902511 4.969269880796213 L 10.48288108001587 4.684925735922808 M 11.17819001957777 4.68650008191615 Q 11.21556096433256 4.602432177885334 11.210236145755992 4.5245547337366805 Q 11.204911327179424 4.4466772895880275 11.161408241208711 4.38575330817656 Q 11.117905155237999 4.3248293267650935 11.041147503731603 4.290708029380284 Q 10.964389852225207 4.256586731995476 10.890015116239667 4.265110149565987 Q 10.815640380254127 4.273633567136498 10.754259144545374 4.321857979034068 Q 10.69287790883662 4.370082390931638 10.65550696408183 4.454150294962454 L 10.571422338383552 4.643303079031789 L 11.094105393879492 4.875652865985485 L 11.17819001957777 4.68650008191615"
                  fill="#e8a941" fill-rule="nonzero"></path>
        </g>
        <g clip-path="url(#SvgjsClipPath1006)">
            <g clip-path="url(#SvgjsClipPath10016cf7f6d8-1fdd-467f-9268-b77a86b3d02a)">
                <path d=" M 1.6991710460043694 2.9111662425764964 C 1.6882172703933334 1.9404658022490506 1.677441604954822 0.970077054723561 1.6668440496888766 0 L 1.5599779461665937 0 C 1.5768093574713593 1.2289601905062828 1.5951101776995404 2.4602358132555664 1.6148804068511642 3.693826868247837 L 1.7109263173918288 3.693826868247837 C 1.7109263173918288 3.6898193893657614 1.7109263173918288 3.6856783278542684 1.7109263173918288 3.681670848972179 C 1.7042471859216757 3.4249250352598786 1.7021098638512273 3.1680456389181875 1.6991710460043694 2.9111662425764964 Z"
                      fill="url(#gradient-c81bacfd-b3f4-497f-9f56-b76f0c7ebae8_0)" transform="matrix(1,0,0,1,0,0)"
                      fill-rule="nonzero"></path>
            </g>
            <g clip-path="url(#SvgjsClipPath10016cf7f6d8-1fdd-467f-9268-b77a86b3d02a)">
                <path d=" M 0.8828475977234976 3.384315915921414 C 0.8848958647076768 3.000666604276412 0.8870331867781253 2.6170172926313966 0.8892595639348292 2.2333679809863947 L 0.7823934604125599 2.2298948326219215 C 0.7829277909301616 2.7159574934757846 0.7848424752849369 3.202866177649206 0.7881375134768719 3.690620885142171 L 0.8840498413881189 3.693826868247837 C 0.8840498413881189 3.6922238766950177 0.8840498413881189 3.690620885142171 0.8840498413881189 3.6890178935893516 C 0.8811110235412609 3.5873615126137652 0.8823132672058821 3.4858387142675826 0.8828475977234976 3.384315915921414 Z"
                      fill="url(#gradient-c81bacfd-b3f4-497f-9f56-b76f0c7ebae8_1)" transform="matrix(1,0,0,1,0,0)"
                      fill-rule="nonzero"></path>
            </g>
            <g clip-path="url(#SvgjsClipPath10016cf7f6d8-1fdd-467f-9268-b77a86b3d02a)">
                <path d=" M 2.482232419563921 3.384315915921414 C 2.4842806865481 3.000666604276412 2.486418008618535 2.6170172926313966 2.4886443857752525 2.2333679809863947 L 2.382446195399989 2.2298948326219215 C 2.382446195399989 2.7159574934757846 2.3843163522116297 3.202866177649206 2.388056665834911 3.690620885142171 L 2.4839689937461578 3.693826868247837 C 2.4839689937461578 3.6922238766950177 2.4839689937461578 3.690620885142171 2.4839689937461578 3.6890178935893516 C 2.480763010640492 3.5873615126137652 2.4818316716757094 3.4858387142675826 2.482232419563921 3.384315915921414 Z"
                      fill="url(#gradient-c81bacfd-b3f4-497f-9f56-b76f0c7ebae8_2)" transform="matrix(1,0,0,1,0,0)"
                      fill-rule="nonzero"></path>
            </g>
            <g clip-path="url(#SvgjsClipPath10016cf7f6d8-1fdd-467f-9268-b77a86b3d02a)">
                <path d=" M 0.07293611565396067 3.147473913990149 L 0 3.1440007656256745 L 0 3.690353719883365 L 0.07293611565396067 3.693826868247839 L 0.07293611565396067 3.147473913990149 Z"
                      fill="url(#gradient-c81bacfd-b3f4-497f-9f56-b76f0c7ebae8_3)" transform="matrix(1,0,0,1,0,0)"
                      fill-rule="nonzero"></path>
            </g>
            <g clip-path="url(#SvgjsClipPath10016cf7f6d8-1fdd-467f-9268-b77a86b3d02a)">
                <path d=" M 3.27183934196421 3.147473913990149 L 3.1987696436808464 3.1440007656256745 L 3.1987696436808464 3.690353719883365 L 3.27183934196421 3.693826868247839 L 3.27183934196421 3.147473913990149 Z"
                      fill="url(#gradient-c81bacfd-b3f4-497f-9f56-b76f0c7ebae8_4)" transform="matrix(1,0,0,1,0,0)"
                      fill-rule="nonzero"></path>
            </g>
            <g clip-path="url(#SvgjsClipPath10016cf7f6d8-1fdd-467f-9268-b77a86b3d02a)">
                <path d=" M 2.077744217732051 1.0028047989272653 L 1.9819654724502078 1.0028047989272653 C 1.9819654724502078 1.0154951487205381 1.9819654724502078 1.028185498513811 1.9810303940443943 1.0408758483070701 L 1.985438620814695 3.5025365429429445 C 1.9863291716773739 3.566299984711251 1.9873087776263356 3.630063426479544 1.9883774386615667 3.693826868247837 L 2.071332251520733 3.693826868247837 C 2.0848240970904017 2.798288920731066 2.1028577520598026 1.8990106595910279 2.077744217732051 1.0028047989272653 Z"
                      fill="url(#gradient-c81bacfd-b3f4-497f-9f56-b76f0c7ebae8_5)" transform="matrix(1,0,0,1,0,0)"
                      fill-rule="nonzero"></path>
            </g>
            <g clip-path="url(#SvgjsClipPath10016cf7f6d8-1fdd-467f-9268-b77a86b3d02a)">
                <path d=" M 1.2785193460147666 1.0028047989272653 L 1.1826070181035195 1.0028047989272653 C 1.1826070181035195 1.0154951487205381 1.1826070181035195 1.028185498513811 1.1818055223270962 1.0408758483070701 L 1.186080166467993 3.5025365429429445 C 1.1871488275032103 3.566299984711251 1.1881284334521722 3.630063426479544 1.1890189843148649 3.693826868247837 L 1.2719737971740448 3.693826868247837 C 1.285064894855502 2.798288920731066 1.303232132454279 1.8990106595910279 1.2785193460147666 1.0028047989272653 Z"
                      fill="url(#gradient-c81bacfd-b3f4-497f-9f56-b76f0c7ebae8_6)" transform="matrix(1,0,0,1,0,0)"
                      fill-rule="nonzero"></path>
            </g>
            <g clip-path="url(#SvgjsClipPath10016cf7f6d8-1fdd-467f-9268-b77a86b3d02a)">
                <path d=" M 0.4838362836971592 2.9863732629302926 C 0.4829012052913458 2.9683396079609192 0.4819661268855186 2.950305952991532 0.48089746585030124 2.932940211169151 L 0.39794265299112114 2.932940211169151 C 0.39487025251485924 2.9905143244417993 0.39166426940917975 3.0480884377144197 0.38872545156233557 3.105796133616458 L 0.38872545156233557 3.6584274714560685 C 0.389660529968149 3.6704499081023356 0.3903284431151547 3.682472344748575 0.39153068677978964 3.6944947813948423 L 0.4838362836971592 3.6944947813948423 Z"
                      fill="url(#gradient-c81bacfd-b3f4-497f-9f56-b76f0c7ebae8_7)" transform="matrix(1,0,0,1,0,0)"
                      fill-rule="nonzero"></path>
            </g>
            <g clip-path="url(#SvgjsClipPath10016cf7f6d8-1fdd-467f-9268-b77a86b3d02a)">
                <path d=" M 2.8829803077724963 2.9863732629302926 C 2.8820452293666827 2.9683396079609192 2.8809765683314517 2.950305952991532 2.880041489925625 2.932940211169151 L 2.7970866770664444 2.932940211169151 C 2.793969749047048 2.99055885198492 2.7908528210276513 3.048177492800689 2.787735893008241 3.105796133616458 L 2.787735893008241 3.6584274714560685 C 2.7888045540434723 3.6704499081023356 2.7894724671904783 3.682472344748575 2.790674710855113 3.6944947813948423 L 2.8829803077724963 3.6944947813948423 Z"
                      fill="url(#gradient-c81bacfd-b3f4-497f-9f56-b76f0c7ebae8_8)" transform="matrix(1,0,0,1,0,0)"
                      fill-rule="nonzero"></path>
            </g>
            <g clip-path="url(#SvgjsClipPath10016cf7f6d8-1fdd-467f-9268-b77a86b3d02a)">
                <path d=" M 4.898608602832222 2.9111662425764964 C 4.887654827221186 1.9404658022490506 4.876879161782688 0.970077054723561 4.866281606516729 0 L 4.759415502994446 0 C 4.776246914299226 1.2289601905062828 4.7945032069842854 2.4602358132555664 4.8141843810496265 3.693826868247837 L 4.910230291590291 3.693826868247837 C 4.910230291590291 3.6898193893657614 4.910230291590291 3.6856783278542684 4.910230291590291 3.681670848972179 C 4.903016829602536 3.4249250352598786 4.900879507532074 3.1680456389181875 4.898608602832222 2.9111662425764964 Z"
                      fill="url(#gradient-c81bacfd-b3f4-497f-9f56-b76f0c7ebae8_9)" transform="matrix(1,0,0,1,0,0)"
                      fill-rule="nonzero"></path>
            </g>
            <g clip-path="url(#SvgjsClipPath10016cf7f6d8-1fdd-467f-9268-b77a86b3d02a)">
                <path d=" M 4.081750824033748 3.384315915921414 C 4.083620980845375 3.000666604276412 4.0857583029158375 2.6170172926313966 4.08816279024508 2.2333679809863947 L 3.981296686722797 2.2298948326219215 C 3.981296686722797 2.7159574934757846 3.9831668435344514 3.202866177649206 3.9869071571577326 3.690620885142171 L 4.082819485068979 3.693826868247837 C 4.082819485068979 3.6922238766950177 4.082819485068979 3.690620885142171 4.082819485068979 3.6890178935893516 C 4.079880667222094 3.5873615126137652 4.081216493516133 3.4858387142675826 4.081750824033748 3.384315915921414 Z"
                      fill="url(#gradient-c81bacfd-b3f4-497f-9f56-b76f0c7ebae8_10)" transform="matrix(1,0,0,1,0,0)"
                      fill-rule="nonzero"></path>
            </g>
            <g clip-path="url(#SvgjsClipPath10016cf7f6d8-1fdd-467f-9268-b77a86b3d02a)">
                <path d=" M 5.681135645874158 3.384315915921414 C 5.683005802685813 3.000666604276412 5.685143124756247 2.6170172926313966 5.687547612085489 2.2333679809863947 L 5.580681508563234 2.2298948326219215 C 5.580681508563234 2.7159574934757846 5.582551665374861 3.202866177649206 5.586291978998142 3.690620885142171 L 5.682204306909389 3.693826868247837 C 5.682204306909389 3.6922238766950177 5.682204306909389 3.690620885142171 5.682204306909389 3.6890178935893516 C 5.6793990716919485 3.5873615126137652 5.680601315356543 3.4858387142675826 5.681135645874158 3.384315915921414 Z"
                      fill="url(#gradient-c81bacfd-b3f4-497f-9f56-b76f0c7ebae8_11)" transform="matrix(1,0,0,1,0,0)"
                      fill-rule="nonzero"></path>
            </g>
            <g clip-path="url(#SvgjsClipPath10016cf7f6d8-1fdd-467f-9268-b77a86b3d02a)">
                <path d=" M 6.470608985645056 3.147473913990149 L 6.397672869991095 3.1440007656256745 L 6.397672869991095 3.690353719883365 L 6.470608985645056 3.693826868247839 L 6.470608985645056 3.147473913990149 Z"
                      fill="url(#gradient-c81bacfd-b3f4-497f-9f56-b76f0c7ebae8_12)" transform="matrix(1,0,0,1,0,0)"
                      fill-rule="nonzero"></path>
            </g>
            <g clip-path="url(#SvgjsClipPath10016cf7f6d8-1fdd-467f-9268-b77a86b3d02a)">
                <path d=" M 5.276647444042301 1.0028047989272653 L 5.180735116131054 1.0028047989272653 C 5.180735116131054 1.0154951487205381 5.180735116131054 1.028185498513811 5.179933620354658 1.0408758483070701 L 5.184208264495556 3.5025365429429445 C 5.18527692553076 3.566299984711251 5.186256531479721 3.630063426479544 5.187147082342413 3.693826868247837 L 5.27010189520158 3.693826868247837 C 5.2835937407712485 2.798288920731066 5.301627395740649 1.8990106595910279 5.276647444042301 1.0028047989272653 Z"
                      fill="url(#gradient-c81bacfd-b3f4-497f-9f56-b76f0c7ebae8_13)" transform="matrix(1,0,0,1,0,0)"
                      fill-rule="nonzero"></path>
            </g>
            <g clip-path="url(#SvgjsClipPath10016cf7f6d8-1fdd-467f-9268-b77a86b3d02a)">
                <path d=" M 4.476888241807388 1.0028047989272653 L 4.380975913896141 1.0028047989272653 C 4.380975913896141 1.0154951487205381 4.380975913896141 1.028185498513811 4.380174418119745 1.0408758483070701 L 4.384582644890032 3.5025365429429445 C 4.385562250838994 3.566299984711251 4.3865418567879555 3.630063426479544 4.38752146273689 3.693826868247837 L 4.470476275596084 3.693826868247837 C 4.484502451683368 2.798288920731066 4.502001776135126 1.8990106595910279 4.476888241807388 1.0028047989272653 Z"
                      fill="url(#gradient-c81bacfd-b3f4-497f-9f56-b76f0c7ebae8_14)" transform="matrix(1,0,0,1,0,0)"
                      fill-rule="nonzero"></path>
            </g>
            <g clip-path="url(#SvgjsClipPath10016cf7f6d8-1fdd-467f-9268-b77a86b3d02a)">
                <path d=" M 3.683006675266218 2.9863732629302926 C 3.6819380142309868 2.9683396079609192 3.6810029358251732 2.950305952991532 3.680067857419332 2.932940211169151 L 3.597113044560166 2.932940211169151 C 3.5940406440838903 2.9905143244417993 3.5907010783488342 3.0480884377144197 3.5877622605019766 3.105796133616458 L 3.5877622605019766 3.6584274714560685 C 3.58883092153718 3.6704499081023356 3.5893652520547956 3.682472344748575 3.5905674957194167 3.6944947813948423 L 3.6830066752661903 3.6944947813948423 Z"
                      fill="url(#gradient-c81bacfd-b3f4-497f-9f56-b76f0c7ebae8_15)" transform="matrix(1,0,0,1,0,0)"
                      fill-rule="nonzero"></path>
            </g>
            <g clip-path="url(#SvgjsClipPath10016cf7f6d8-1fdd-467f-9268-b77a86b3d02a)">
                <path d=" M 6.081749951453343 2.9863732629302926 C 6.0808148730475295 2.9683396079609192 6.0798797946416885 2.950305952991532 6.078811133606457 2.932940211169151 L 5.995856320747292 2.932940211169151 C 5.992783920271016 2.9905143244417993 5.98957793716535 3.0480884377144197 5.986639119318492 3.105796133616458 L 5.986639119318492 3.6584274714560685 C 5.987574197724306 3.6704499081023356 5.988242110871338 3.682472344748575 5.9894443545359595 3.6944947813948423 L 6.081749951453343 3.6944947813948423 Z"
                      fill="url(#gradient-c81bacfd-b3f4-497f-9f56-b76f0c7ebae8_16)" transform="matrix(1,0,0,1,0,0)"
                      fill-rule="nonzero"></path>
            </g>
            <g clip-path="url(#SvgjsClipPath10016cf7f6d8-1fdd-467f-9268-b77a86b3d02a)">
                <path d=" M 8.096843915995454 2.9111662425764964 C 8.085890140384418 1.9404658022490506 8.075069947402799 0.970077054723561 8.06438333705057 0 L 7.9575172335282875 0 C 7.974348644833039 1.2289601905062828 7.992649465061221 2.4602358132555664 8.012419694212857 3.693826868247837 L 8.108332022124104 3.693826868247837 C 8.108332022124104 3.6898193893657614 8.108332022124104 3.6856783278542684 8.108332022124104 3.681670848972179 C 8.101920055912773 3.4249250352598786 8.09964915121292 3.1680456389181875 8.096843915995454 2.9111662425764964 Z"
                      fill="url(#gradient-c81bacfd-b3f4-497f-9f56-b76f0c7ebae8_17)" transform="matrix(1,0,0,1,0,0)"
                      fill-rule="nonzero"></path>
            </g>
            <g clip-path="url(#SvgjsClipPath10016cf7f6d8-1fdd-467f-9268-b77a86b3d02a)">
                <path d=" M 7.280520467714595 3.384315915921414 C 7.282568734698788 3.000666604276412 7.284706056769223 2.6170172926313966 7.2869324339259265 2.2333679809863947 L 7.180066330403644 2.2298948326219215 C 7.180066330403644 2.7159574934757846 7.181936487215298 3.202866177649206 7.185676800838579 3.690620885142171 L 7.281589128749826 3.693826868247837 C 7.281589128749826 3.6922238766950177 7.281589128749826 3.690620885142171 7.281589128749826 3.6890178935893516 C 7.278783893532359 3.5873615126137652 7.27998613719698 3.4858387142675826 7.280520467714595 3.384315915921414 Z"
                      fill="url(#gradient-c81bacfd-b3f4-497f-9f56-b76f0c7ebae8_18)" transform="matrix(1,0,0,1,0,0)"
                      fill-rule="nonzero"></path>
            </g>
            <g clip-path="url(#SvgjsClipPath10016cf7f6d8-1fdd-467f-9268-b77a86b3d02a)">
                <path d=" M 8.87937095903739 3.384315915921414 C 8.881419226021583 3.000666604276412 8.883556548092017 2.6170172926313966 8.885782925248748 2.2333679809863947 L 8.778916821726465 2.2298948326219215 C 8.778916821726465 2.7159574934757846 8.780786978538092 3.202866177649206 8.784527292161373 3.690620885142171 L 8.880573202702038 3.693826868247837 C 8.880573202702038 3.6922238766950177 8.880573202702038 3.690620885142171 8.880573202702038 3.6890178935893516 C 8.878168715372768 3.5873615126137652 8.87937095903739 3.4858387142675826 8.87937095903739 3.384315915921414 Z"
                      fill="url(#gradient-c81bacfd-b3f4-497f-9f56-b76f0c7ebae8_19)" transform="matrix(1,0,0,1,0,0)"
                      fill-rule="nonzero"></path>
            </g>
            <g clip-path="url(#SvgjsClipPath10016cf7f6d8-1fdd-467f-9268-b77a86b3d02a)">
                <path d=" M 9.669378629325903 3.147473913990149 L 9.596442513671942 3.1440007656256745 L 9.596442513671942 3.690353719883365 L 9.669378629325903 3.693826868247839 L 9.669378629325903 3.147473913990149 Z"
                      fill="url(#gradient-c81bacfd-b3f4-497f-9f56-b76f0c7ebae8_20)" transform="matrix(1,0,0,1,0,0)"
                      fill-rule="nonzero"></path>
            </g>
            <g clip-path="url(#SvgjsClipPath10016cf7f6d8-1fdd-467f-9268-b77a86b3d02a)">
                <path d=" M 8.475417087723148 1.0028047989272653 L 8.379504759811901 1.0028047989272653 L 8.378703264035506 1.0408758483070701 L 8.382977908176402 3.5025365429429445 C 8.384046569211606 3.566299984711251 8.385026175160569 3.630063426479544 8.385916726023261 3.693826868247837 L 8.469005121511845 3.693826868247837 C 8.482363384452096 2.798288920731066 8.500530622050887 1.8990106595910279 8.475417087723148 1.0028047989272653 Z"
                      fill="url(#gradient-c81bacfd-b3f4-497f-9f56-b76f0c7ebae8_21)" transform="matrix(1,0,0,1,0,0)"
                      fill-rule="nonzero"></path>
            </g>
            <g clip-path="url(#SvgjsClipPath10016cf7f6d8-1fdd-467f-9268-b77a86b3d02a)">
                <path d=" M 7.675657885488235 1.0028047989272653 L 7.579879140206406 1.0028047989272653 C 7.579879140206406 1.0154951487205381 7.579879140206406 1.028185498513811 7.578944061800592 1.0408758483070701 L 7.583619453829687 3.502002212425329 C 7.584599059778649 3.5657656541936356 7.585578665727583 3.6295290959619284 7.5865582716765445 3.6932925377302213 L 7.669513084535711 3.6932925377302213 C 7.6827377648466 2.798288920731066 7.700771419815973 1.8990106595910279 7.675657885488235 1.0028047989272653 Z"
                      fill="url(#gradient-c81bacfd-b3f4-497f-9f56-b76f0c7ebae8_22)" transform="matrix(1,0,0,1,0,0)"
                      fill-rule="nonzero"></path>
            </g>
            <g clip-path="url(#SvgjsClipPath10016cf7f6d8-1fdd-467f-9268-b77a86b3d02a)">
                <path d=" M 6.881509153688257 2.9863732629302926 C 6.880574075282444 2.9683396079609192 6.8795054142472125 2.950305952991532 6.8785703358413715 2.932940211169151 L 6.795481940352815 2.932940211169151 C 6.792365012333418 2.99055885198492 6.789248084314022 3.048177492800689 6.786131156294598 3.105796133616458 L 6.786131156294598 3.6584274714560685 C 6.787199817329829 3.6704499081023356 6.787867730476835 3.682472344748575 6.789069974141456 3.6944947813948423 L 6.88137557105884 3.6944947813948423 Z"
                      fill="url(#gradient-c81bacfd-b3f4-497f-9f56-b76f0c7ebae8_23)" transform="matrix(1,0,0,1,0,0)"
                      fill-rule="nonzero"></path>
            </g>
            <g clip-path="url(#SvgjsClipPath10016cf7f6d8-1fdd-467f-9268-b77a86b3d02a)">
                <path d=" M 9.280118847245964 2.9863732629302926 C 9.279050186210734 2.9683396079609192 9.27811510780492 2.950305952991532 9.277180029399107 2.932940211169151 L 9.194225216539941 2.932940211169151 C 9.191152816063665 2.9905143244417993 9.18781325032861 3.0480884377144197 9.184874432481724 3.105796133616458 L 9.184874432481724 3.6584274714560685 C 9.185943093516954 3.6704499081023356 9.186477424034543 3.682472344748575 9.187679667699191 3.6944947813948423 L 9.280118847245964 3.6944947813948423 Z"
                      fill="url(#gradient-c81bacfd-b3f4-497f-9f56-b76f0c7ebae8_24)" transform="matrix(1,0,0,1,0,0)"
                      fill-rule="nonzero"></path>
            </g>
        </g>
        <g>
            <path d=" M -0.8833085865294317 1.8469134341239202 A 5.7179979011923825 5.7179979011923825 0 0 1 10.552687215855332 1.8469134341239202 A 5.7179979011923825 5.7179979011923825 0 0 1 -0.8833085865294326 1.8469134341239202 Z M -0.833308586529431 1.8469134341239193 A 5.667997901192382 5.667997901192382 0 0 0 10.502687215855332 1.8469134341239193 A 5.667997901192382 5.667997901192382 0 0 0 -0.8333085865294318 1.8469134341239193 Z"
                  fill="#262626" fill-rule="nonzero"></path>
        </g>
        <g transform="matrix(-0.20708802359256084,-0.9783223142116952,0.9783223142116952,-0.20708802359256084,-4.8436858006082435,1.630998717612248)">
            <g clip-path="url(#SvgjsClipPath1007)">
                <path d=" M -1.877126553125508 2.9432740489342932 L -1.8359447908668873 2.9432740489342932 C -1.8322883546599908 2.9432740489342932 -1.8295952908668873 2.9442352318653278 -1.8269000375910251 2.94693048514119 L -1.7976507374186115 2.975987110830845 C -1.7726337074186114 3.0011968153136035 -1.7491580732806804 3.001004140830845 -1.7241410432806803 2.975987110830845 L -1.6948917431082666 2.94693048514119 C -1.6921964898324044 2.9442352318653278 -1.689503426039301 2.9432740489342932 -1.6858469898324044 2.9432740489342932 L -1.6446650086255081 2.9432740489342932 C -1.6092566934530943 2.9432740489342932 -1.5925159082806803 2.926531074279121 -1.5925159082806803 2.891122759106707 L -1.5925159082806803 2.849942967382569 C -1.5925159082806803 2.8462865311756724 -1.5913598613841287 2.8435912778998107 -1.5888594720737839 2.840898214106707 L -1.55980065690137 2.811646724451535 C -1.53459314190137 2.786631883934293 -1.5347858163841286 2.7631540603136036 -1.55980065690137 2.7381370303136037 L -1.5888594720737839 2.70888773014119 C -1.5915525358668872 2.7060019918653277 -1.5925159082806803 2.7034994130722243 -1.5925159082806803 2.6996503023825693 L -1.5925159082806803 2.658469415917052 C -1.5925159082806803 2.6232537752273966 -1.6090640189703356 2.6065121142618795 -1.6446650086255081 2.6065121142618795 L -1.6858469898324044 2.6065121142618795 C -1.689503426039301 2.6065121142618795 -1.6921964898324044 2.605357381054983 -1.6948917431082666 2.6026632225205004 L -1.7241410432806803 2.5736057210377417 C -1.7491580732806804 2.5483966733998105 -1.7724410329358529 2.5485891289342932 -1.7976507374186115 2.5736057210377417 L -1.8269000375910251 2.6026632225205004 C -1.8295952908668873 2.605357381054983 -1.8322883546599908 2.6065121142618795 -1.8359447908668873 2.6065121142618795 L -1.877126553125508 2.6065121142618795 C -1.9127271048841288 2.6065121142618795 -1.929276529263439 2.622869083106707 -1.929276529263439 2.658469415917052 L -1.929276529263439 2.6996503023825693 C -1.929276529263439 2.7034994130722243 -1.9302388069358527 2.7060019918653277 -1.9329327465220598 2.70888773014119 L -1.961990466953094 2.7381370303136037 C -1.9871995145910253 2.7631540603136036 -1.9870070590565425 2.786631883934293 -1.961990466953094 2.811646724451535 L -1.9329327465220598 2.840898214106707 C -1.9302388069358527 2.8435912778998107 -1.929276529263439 2.8462865311756724 -1.929276529263439 2.849942967382569 L -1.929276529263439 2.891122759106707 C -1.929276529263439 2.926531074279121 -1.9127271048841288 2.9432740489342932 -1.877126553125508 2.9432740489342932 Z M -1.8746250690737838 2.908251082727397 C -1.8915591855737839 2.908251082727397 -1.8942533441082665 2.9055558294515347 -1.8942533441082665 2.888622369796362 L -1.8942533441082665 2.838202960830845 C -1.8942533441082665 2.832431484279121 -1.8961776805048183 2.8281970246239485 -1.9002188088324046 2.824155239451535 L -1.9356269050565424 2.788746924279121 C -1.9477502900393011 2.776623758244638 -1.9477502900393011 2.7731599965205 -1.9356269050565424 2.7610368304860176 L -1.9002188088324046 2.7256285153136037 C -1.8961776805048183 2.7215889196239487 -1.8942533441082665 2.7171617854860175 -1.8942533441082665 2.711388119451535 L -1.8942533441082665 2.6611635744515345 C -1.8942533441082665 2.643844327934293 -1.8917516411082667 2.641535299417052 -1.8746250690737838 2.641535299417052 L -1.8242069737979218 2.641342843882569 C -1.8186259822461976 2.641342843882569 -1.8142010375910251 2.6398031996067073 -1.8101592524186114 2.635569615744638 L -1.7747509372461976 2.600161738468776 C -1.7626277712117149 2.5880383534860174 -1.759164009487577 2.5880383534860174 -1.7470408434530942 2.600161738468776 L -1.7116325282806804 2.635569615744638 C -1.7075907431082666 2.6398031996067073 -1.7031657984530941 2.641342843882569 -1.6973921324186114 2.641342843882569 L -1.6471675874186116 2.641535299417052 C -1.6302319382806805 2.641535299417052 -1.627538874487577 2.6442292390032587 -1.627538874487577 2.6611635744515345 L -1.627538874487577 2.711388119451535 C -1.6273462000048182 2.7171617854860175 -1.6256143191427492 2.7215889196239487 -1.6215725339703355 2.7256285153136037 L -1.5861642187979217 2.7610368304860176 C -1.574041052763439 2.7731599965205 -1.574041052763439 2.776623758244638 -1.5861642187979217 2.788746924279121 L -1.6215725339703355 2.824155239451535 C -1.6256143191427492 2.8281970246239485 -1.6273462000048182 2.832431484279121 -1.6273462000048182 2.838202960830845 L -1.627538874487577 2.888622369796362 C -1.627538874487577 2.9055558294515347 -1.6302319382806805 2.908251082727397 -1.6471675874186116 2.908251082727397 L -1.6973921324186114 2.908251082727397 C -1.7031657984530941 2.908251082727397 -1.7075907431082666 2.909790289106707 -1.7116325282806804 2.9142152337618796 L -1.7470408434530942 2.9496235489342935 C -1.759164009487577 2.9617467149687764 -1.7626277712117149 2.9617467149687764 -1.7747509372461976 2.9496235489342935 L -1.8101592524186114 2.9142152337618796 C -1.8142010375910251 2.909790289106707 -1.8186259822461976 2.908251082727397 -1.8242069737979218 2.908251082727397 L -1.8746250690737838 2.908251082727397 Z"
                      fill="#262626" transform="matrix(1,0,0,1,0,0)" fill-rule="nonzero"></path>
            </g>
        </g>
        <g transform="matrix(0.20708802359256084,-0.9783223142116952,-0.9783223142116952,-0.20708802359256084,11.781331020849356,14.53621508030893)">
            <g clip-path="url(#SvgjsClipPath1008)">
                <path d=" M 11.314043856899684 2.9432740489342932 L 11.355225619158304 2.9432740489342932 C 11.3588820553652 2.9432740489342932 11.361575119158305 2.9442352318653278 11.364270372434166 2.94693048514119 L 11.39351967260658 2.975987110830845 C 11.41853670260658 3.0011968153136035 11.442012336744511 3.001004140830845 11.46702936674451 2.975987110830845 L 11.496278666916925 2.94693048514119 C 11.498973920192787 2.9442352318653278 11.50166698398589 2.9432740489342932 11.505323420192786 2.9432740489342932 L 11.546505401399683 2.9432740489342932 C 11.581913716572098 2.9432740489342932 11.59865450174451 2.926531074279121 11.59865450174451 2.891122759106707 L 11.59865450174451 2.849942967382569 C 11.59865450174451 2.8462865311756724 11.599810548641063 2.8435912778998107 11.602310937951408 2.840898214106707 L 11.63136975312382 2.811646724451535 C 11.65657726812382 2.786631883934293 11.656384593641063 2.7631540603136036 11.63136975312382 2.7381370303136037 L 11.602310937951408 2.70888773014119 C 11.599617874158303 2.7060019918653277 11.59865450174451 2.7034994130722243 11.59865450174451 2.6996503023825693 L 11.59865450174451 2.658469415917052 C 11.59865450174451 2.6232537752273966 11.582106391054856 2.6065121142618795 11.546505401399683 2.6065121142618795 L 11.505323420192786 2.6065121142618795 C 11.50166698398589 2.6065121142618795 11.498973920192787 2.605357381054983 11.496278666916925 2.6026632225205004 L 11.46702936674451 2.5736057210377417 C 11.442012336744511 2.5483966733998105 11.418729377089338 2.5485891289342932 11.39351967260658 2.5736057210377417 L 11.364270372434166 2.6026632225205004 C 11.361575119158305 2.605357381054983 11.3588820553652 2.6065121142618795 11.355225619158304 2.6065121142618795 L 11.314043856899684 2.6065121142618795 C 11.278443305141062 2.6065121142618795 11.261893880761752 2.622869083106707 11.261893880761752 2.658469415917052 L 11.261893880761752 2.6996503023825693 C 11.261893880761752 2.7034994130722243 11.260931603089338 2.7060019918653277 11.258237663503131 2.70888773014119 L 11.229179943072097 2.7381370303136037 C 11.203970895434166 2.7631540603136036 11.20416335096865 2.786631883934293 11.229179943072097 2.811646724451535 L 11.258237663503131 2.840898214106707 C 11.260931603089338 2.8435912778998107 11.261893880761752 2.8462865311756724 11.261893880761752 2.849942967382569 L 11.261893880761752 2.891122759106707 C 11.261893880761752 2.926531074279121 11.278443305141062 2.9432740489342932 11.314043856899684 2.9432740489342932 Z M 11.316545340951407 2.908251082727397 C 11.299611224451407 2.908251082727397 11.296917065916924 2.9055558294515347 11.296917065916924 2.888622369796362 L 11.296917065916924 2.838202960830845 C 11.296917065916924 2.832431484279121 11.294992729520374 2.8281970246239485 11.290951601192786 2.824155239451535 L 11.25554350496865 2.788746924279121 C 11.24342011998589 2.776623758244638 11.24342011998589 2.7731599965205 11.25554350496865 2.7610368304860176 L 11.290951601192786 2.7256285153136037 C 11.294992729520374 2.7215889196239487 11.296917065916924 2.7171617854860175 11.296917065916924 2.711388119451535 L 11.296917065916924 2.6611635744515345 C 11.296917065916924 2.643844327934293 11.299418768916924 2.641535299417052 11.316545340951407 2.641535299417052 L 11.36696343622727 2.641342843882569 C 11.372544427778994 2.641342843882569 11.376969372434166 2.6398031996067073 11.38101115760658 2.635569615744638 L 11.416419472778994 2.600161738468776 C 11.428542638813477 2.5880383534860174 11.432006400537615 2.5880383534860174 11.444129566572098 2.600161738468776 L 11.47953788174451 2.635569615744638 C 11.483579666916924 2.6398031996067073 11.488004611572098 2.641342843882569 11.49377827760658 2.641342843882569 L 11.54400282260658 2.641535299417052 C 11.56093847174451 2.641535299417052 11.563631535537615 2.6442292390032587 11.563631535537615 2.6611635744515345 L 11.563631535537615 2.711388119451535 C 11.563824210020373 2.7171617854860175 11.565556090882442 2.7215889196239487 11.569597876054855 2.7256285153136037 L 11.60500619122727 2.7610368304860176 C 11.617129357261753 2.7731599965205 11.617129357261753 2.776623758244638 11.60500619122727 2.788746924279121 L 11.569597876054855 2.824155239451535 C 11.565556090882442 2.8281970246239485 11.563824210020373 2.832431484279121 11.563824210020373 2.838202960830845 L 11.563631535537615 2.888622369796362 C 11.563631535537615 2.9055558294515347 11.56093847174451 2.908251082727397 11.54400282260658 2.908251082727397 L 11.49377827760658 2.908251082727397 C 11.488004611572098 2.908251082727397 11.483579666916924 2.909790289106707 11.47953788174451 2.9142152337618796 L 11.444129566572098 2.9496235489342935 C 11.432006400537615 2.9617467149687764 11.428542638813477 2.9617467149687764 11.416419472778994 2.9496235489342935 L 11.38101115760658 2.9142152337618796 C 11.376969372434166 2.909790289106707 11.372544427778994 2.908251082727397 11.36696343622727 2.908251082727397 L 11.316545340951407 2.908251082727397 Z"
                      fill="#262626" transform="matrix(1,0,0,1,0,0)" fill-rule="nonzero"></path>
            </g>
        </g>
    </g>
    <defs>
        <clipPath id="SvgjsClipPath1006">
            <path d=" M 0 0 h 9.669378629325902 v 3.6938268682478395 h -9.669378629325902 Z"></path>
        </clipPath>
        <clipPath id="SvgjsClipPath10016cf7f6d8-1fdd-467f-9268-b77a86b3d02a">
            <path d=" M 0 2.147033357619211e-16 L 9.669378629325902 2.147033357619211e-16 L 9.669378629325902 3.693826868247839 L 0 3.693826868247839 Z"></path>
        </clipPath>
        <linearGradient id="gradient-c81bacfd-b3f4-497f-9f56-b76f0c7ebae8_0" x1="0" x2="1" y1="0" y2="1">
            <stop stop-color="#d89e3f" offset="0"></stop>
            <stop stop-color="#765c31" offset="1"></stop>
        </linearGradient>
        <linearGradient id="gradient-c81bacfd-b3f4-497f-9f56-b76f0c7ebae8_1" x1="0" x2="1" y1="0" y2="1">
            <stop stop-color="#a57c37" offset="0"></stop>
            <stop stop-color="#7e6132" offset="1"></stop>
        </linearGradient>
        <linearGradient id="gradient-c81bacfd-b3f4-497f-9f56-b76f0c7ebae8_2" x1="0" x2="1" y1="0" y2="1">
            <stop stop-color="#957135" offset="0"></stop>
            <stop stop-color="#6e5730" offset="1"></stop>
        </linearGradient>
        <linearGradient id="gradient-c81bacfd-b3f4-497f-9f56-b76f0c7ebae8_3" x1="0" x2="1" y1="0" y2="1">
            <stop stop-color="#957136" offset="0"></stop>
            <stop stop-color="#866733" offset="1"></stop>
        </linearGradient>
        <linearGradient id="gradient-c81bacfd-b3f4-497f-9f56-b76f0c7ebae8_4" x1="0" x2="1" y1="0" y2="1">
            <stop stop-color="#755b31" offset="0"></stop>
            <stop stop-color="#66512f" offset="1"></stop>
        </linearGradient>
        <linearGradient id="gradient-c81bacfd-b3f4-497f-9f56-b76f0c7ebae8_5" x1="0" x2="1" y1="0" y2="1">
            <stop stop-color="#ba8a3a" offset="0"></stop>
            <stop stop-color="#725931" offset="1"></stop>
        </linearGradient>
        <linearGradient id="gradient-c81bacfd-b3f4-497f-9f56-b76f0c7ebae8_6" x1="0" x2="1" y1="0" y2="1">
            <stop stop-color="#c28f3b" offset="0"></stop>
            <stop stop-color="#7a5f32" offset="1"></stop>
        </linearGradient>
        <linearGradient id="gradient-c81bacfd-b3f4-497f-9f56-b76f0c7ebae8_7" x1="0" x2="1" y1="0" y2="1">
            <stop stop-color="#977235" offset="0"></stop>
            <stop stop-color="#826433" offset="1"></stop>
        </linearGradient>
        <linearGradient id="gradient-c81bacfd-b3f4-497f-9f56-b76f0c7ebae8_8" x1="0" x2="1" y1="0" y2="1">
            <stop stop-color="#7f6232" offset="0"></stop>
            <stop stop-color="#6a542f" offset="1"></stop>
        </linearGradient>
        <linearGradient id="gradient-c81bacfd-b3f4-497f-9f56-b76f0c7ebae8_9" x1="0" x2="1" y1="0" y2="1">
            <stop stop-color="#b8893a" offset="0"></stop>
            <stop stop-color="#56462d" offset="1"></stop>
        </linearGradient>
        <linearGradient id="gradient-c81bacfd-b3f4-497f-9f56-b76f0c7ebae8_10" x1="0" x2="1" y1="0" y2="1">
            <stop stop-color="#856633" offset="0"></stop>
            <stop stop-color="#5e4c2e" offset="1"></stop>
        </linearGradient>
        <linearGradient id="gradient-c81bacfd-b3f4-497f-9f56-b76f0c7ebae8_11" x1="0" x2="1" y1="0" y2="1">
            <stop stop-color="#755b31" offset="0"></stop>
            <stop stop-color="#4e412c" offset="1"></stop>
        </linearGradient>
        <linearGradient id="gradient-c81bacfd-b3f4-497f-9f56-b76f0c7ebae8_12" x1="0" x2="1" y1="0" y2="1">
            <stop stop-color="#55462d" offset="0"></stop>
            <stop stop-color="#463c2a" offset="1"></stop>
        </linearGradient>
        <linearGradient id="gradient-c81bacfd-b3f4-497f-9f56-b76f0c7ebae8_13" x1="0" x2="1" y1="0" y2="1">
            <stop stop-color="#9a7436" offset="0"></stop>
            <stop stop-color="#52442c" offset="1"></stop>
        </linearGradient>
        <linearGradient id="gradient-c81bacfd-b3f4-497f-9f56-b76f0c7ebae8_14" x1="0" x2="1" y1="0" y2="1">
            <stop stop-color="#a27937" offset="0"></stop>
            <stop stop-color="#5a492d" offset="1"></stop>
        </linearGradient>
        <linearGradient id="gradient-c81bacfd-b3f4-497f-9f56-b76f0c7ebae8_15" x1="0" x2="1" y1="0" y2="1">
            <stop stop-color="#775d31" offset="0"></stop>
            <stop stop-color="#624f2e" offset="1"></stop>
        </linearGradient>
        <linearGradient id="gradient-c81bacfd-b3f4-497f-9f56-b76f0c7ebae8_16" x1="0" x2="1" y1="0" y2="1">
            <stop stop-color="#5e4c2e" offset="0"></stop>
            <stop stop-color="#4a3e2b" offset="1"></stop>
        </linearGradient>
        <linearGradient id="gradient-c81bacfd-b3f4-497f-9f56-b76f0c7ebae8_17" x1="0" x2="1" y1="0" y2="1">
            <stop stop-color="#987336" offset="0"></stop>
            <stop stop-color="#363128" offset="1"></stop>
        </linearGradient>
        <linearGradient id="gradient-c81bacfd-b3f4-497f-9f56-b76f0c7ebae8_18" x1="0" x2="1" y1="0" y2="1">
            <stop stop-color="#65502e" offset="0"></stop>
            <stop stop-color="#3e3629" offset="1"></stop>
        </linearGradient>
        <linearGradient id="gradient-c81bacfd-b3f4-497f-9f56-b76f0c7ebae8_19" x1="0" x2="1" y1="0" y2="1">
            <stop stop-color="#55462c" offset="0"></stop>
            <stop stop-color="#2e2b27" offset="1"></stop>
        </linearGradient>
        <linearGradient id="gradient-c81bacfd-b3f4-497f-9f56-b76f0c7ebae8_20" x1="0" x2="1" y1="0" y2="1">
            <stop stop-color="#353028" offset="0"></stop>
            <stop stop-color="#262626" offset="1"></stop>
        </linearGradient>
        <linearGradient id="gradient-c81bacfd-b3f4-497f-9f56-b76f0c7ebae8_21" x1="0" x2="1" y1="0" y2="1">
            <stop stop-color="#795e31" offset="0"></stop>
            <stop stop-color="#322e28" offset="1"></stop>
        </linearGradient>
        <linearGradient id="gradient-c81bacfd-b3f4-497f-9f56-b76f0c7ebae8_22" x1="0" x2="1" y1="0" y2="1">
            <stop stop-color="#816432" offset="0"></stop>
            <stop stop-color="#3a3329" offset="1"></stop>
        </linearGradient>
        <linearGradient id="gradient-c81bacfd-b3f4-497f-9f56-b76f0c7ebae8_23" x1="0" x2="1" y1="0" y2="1">
            <stop stop-color="#56472d" offset="0"></stop>
            <stop stop-color="#42392a" offset="1"></stop>
        </linearGradient>
        <linearGradient id="gradient-c81bacfd-b3f4-497f-9f56-b76f0c7ebae8_24" x1="0" x2="1" y1="0" y2="1">
            <stop stop-color="#3e3729" offset="0"></stop>
            <stop stop-color="#2a2927" offset="1"></stop>
        </linearGradient>
        <clipPath id="SvgjsClipPath1007">
            <path d=" M -2.0674234765565425 2.4608828285894657 h 0.6130551724137931 v 0.63495 h -0.6130551724137931 Z"></path>
        </clipPath>
        <clipPath id="SvgjsClipPath1008">
            <path d=" M 11.123746933468649 2.4608828285894657 h 0.6130551724137931 v 0.63495 h -0.6130551724137931 Z"></path>
        </clipPath>
    </defs>
</svg>